<?xml version="1.0" encoding="UTF-8" standalone="no"?>
<svg
   xmlns:dc="http://purl.org/dc/elements/1.1/"
   xmlns:cc="http://creativecommons.org/ns#"
   xmlns:rdf="http://www.w3.org/1999/02/22-rdf-syntax-ns#"
   xmlns:svg="http://www.w3.org/2000/svg"
   xmlns="http://www.w3.org/2000/svg"
   xmlns:sodipodi="http://sodipodi.sourceforge.net/DTD/sodipodi-0.dtd"
   xmlns:inkscape="http://www.inkscape.org/namespaces/inkscape"
   width="64"
   height="64"
   version="1.1"
   viewBox="0 0 64 64"
   id="svg12"
   sodipodi:docname="logo.svg"
   inkscape:version="1.0.1 (3bc2e813f5, 2020-09-07)">
  <metadata
     id="metadata18">
    <rdf:RDF>
      <cc:Work
         rdf:about="">
        <dc:format>image/svg+xml</dc:format>
        <dc:type
           rdf:resource="http://purl.org/dc/dcmitype/StillImage" />
        <dc:title></dc:title>
      </cc:Work>
    </rdf:RDF>
  </metadata>
  <defs
     id="defs16" />
  <sodipodi:namedview
     pagecolor="#ffffff"
     bordercolor="#666666"
     borderopacity="1"
     objecttolerance="10"
     gridtolerance="10"
     guidetolerance="10"
     inkscape:pageopacity="0"
     inkscape:pageshadow="2"
     inkscape:window-width="960"
     inkscape:window-height="1011"
     id="namedview14"
     showgrid="false"
     inkscape:zoom="9.269728"
     inkscape:cx="18.581977"
     inkscape:cy="38.066365"
     inkscape:window-x="1920"
     inkscape:window-y="0"
     inkscape:window-maximized="0"
     inkscape:current-layer="svg12" />
  <path
     style="opacity:0.2"
     d="M 4.042999,29.828556 A 27.9995,25.999536 0 0 0 4,31.000535 27.9995,25.999536 0 0 0 13.999821,50.91418 l 0,-1.999964 A 27.9995,25.999536 0 0 1 4.042999,29.828556 Z M 59.958001,30.17255 A 27.9995,25.999536 0 0 1 32.0005,55.000107 27.9995,25.999536 0 0 1 21.442688,53.066142 l -7.441867,5.933894 0,1.999964 7.441867,-5.933894 A 27.9995,25.999536 0 0 0 32.0005,57.000071 27.9995,25.999536 0 0 0 60,31.000535 27.9995,25.999536 0 0 0 59.958,30.17255 Z"
     id="path2" />
  <path
     style="fill:#009eff;stroke-width:1"
     d="M 31.9995,4.0010353 A 27.9995,25.999536 0 0 0 3.9999998,30.000571 27.9995,25.999536 0 0 0 13.999821,49.914216 v 10.08582 l 7.441867,-5.933894 A 27.9995,25.999536 0 0 0 31.9995,56.000107 27.9995,25.999536 0 0 0 59.999,30.000571 27.9995,25.999536 0 0 0 31.9995,4.0010353 Z"
     id="path4" />
  <path
     style="opacity:0.2;fill:#000000;stroke-width:0.98151"
     d="m 33.567708,37.952998 -4.845132,-3.729439 -4.370889,4.847402 -9.659924,1.554 10.72057,-15.02082 5.066895,3.132038 12.998265,-1.910872 4.843618,-2.06031 -1.5611,5.884369 -8.800971,4.542394 z"
     id="path8"
     sodipodi:nodetypes="ccccccccccc" />
  <path
     style="opacity:0.2;fill:#ffffff"
     d="M 31.998047 4.0019531 A 27.9995 25.999536 0 0 0 4 30 A 27.9995 25.999536 0 0 0 4.0214844 30.425781 A 27.9995 25.999536 0 0 1 31.998047 5.0019531 L 32 5.0019531 A 27.9995 25.999536 0 0 1 59.976562 30.597656 A 27.9995 25.999536 0 0 0 59.998047 30 A 27.9995 25.999536 0 0 0 32 4.0019531 L 31.998047 4.0019531 z"
     id="path10" />
  <path
     style="fill:#ffffff;stroke-width:0.98151"
     d="m 33.958879,36.249295 -4.845132,-3.729439 -4.370889,4.847402 -9.659924,1.554 10.72057,-15.02082 5.066895,3.132038 12.998265,-1.910872 4.843618,-2.06031 -1.5611,5.884369 -8.800971,4.542394 z"
     id="path8-3"
     sodipodi:nodetypes="ccccccccccc" />
</svg>
